<?xml version="1.0" standalone="no"?><!-- Generator: Gravit.io --><svg xmlns="http://www.w3.org/2000/svg" xmlns:xlink="http://www.w3.org/1999/xlink" style="isolation:isolate" viewBox="0 0 500 500" width="500" height="500"><defs><clipPath id="_clipPath_utij0sOW3rwHlTGir7M5Xv1rsaoJyKwl"><rect width="500" height="500"/></clipPath></defs><g clip-path="url(#_clipPath_utij0sOW3rwHlTGir7M5Xv1rsaoJyKwl)"><path d=" M 0 0 L 500 0 L 500 500 L 0 500 L 0 0 Z " fill="rgb(100,182,135)"/><path d=" M 213.533 219.252 L 213.533 287.88 C 146.655 345.876 69.281 349.375 69.281 349.375 C 21.781 280.748 69.281 150.625 69.281 150.625 C 69.281 150.625 125.664 157.757 213.533 219.252 Z  M 286.467 219.252 L 286.467 287.88 C 353.345 345.876 430.719 349.375 430.719 349.375 C 478.219 280.748 430.719 150.625 430.719 150.625 C 430.719 150.625 374.336 157.757 286.467 219.252 Z  M 266.417 289.494 L 233.449 289.494 C 229.008 289.494 225.375 285.861 225.375 281.421 L 225.375 224.904 C 225.375 220.463 229.008 216.83 233.449 216.83 L 266.417 216.83 C 270.857 216.83 274.491 220.463 274.491 224.904 L 274.491 281.421 C 274.491 285.861 270.857 289.494 266.417 289.494 Z " fill="rgb(57,72,92)"/></g></svg>